<svg width="16" height="14" viewBox="0 0 16 14" fill="none" xmlns="http://www.w3.org/2000/svg">
<path fill-rule="evenodd" clip-rule="evenodd" d="M15.5017 7.31368C15.5017 7.56232 15.4029 7.80078 15.2271 7.9766C15.0513 8.15241 14.8128 8.25118 14.5642 8.25118H3.7023L7.72793 12.2749C7.81509 12.3621 7.88423 12.4656 7.93141 12.5795C7.97858 12.6933 8.00286 12.8154 8.00286 12.9387C8.00286 13.062 7.97858 13.184 7.93141 13.2979C7.88423 13.4118 7.81509 13.5153 7.72793 13.6024C7.64076 13.6896 7.53728 13.7587 7.4234 13.8059C7.30951 13.8531 7.18745 13.8774 7.06418 13.8774C6.94091 13.8774 6.81884 13.8531 6.70496 13.8059C6.59107 13.7587 6.48759 13.6896 6.40043 13.6024L0.775426 7.97743C0.68812 7.89035 0.618852 7.78689 0.57159 7.673C0.524327 7.5591 0.5 7.437 0.5 7.31368C0.5 7.19037 0.524327 7.06827 0.57159 6.95437C0.618852 6.84047 0.68812 6.73702 0.775426 6.64993L6.40043 1.02493C6.57646 0.848897 6.81522 0.75 7.06418 0.75C7.31313 0.75 7.55189 0.848897 7.72793 1.02493C7.90396 1.20097 8.00286 1.43973 8.00286 1.68868C8.00286 1.93764 7.90396 2.1764 7.72793 2.35243L3.7023 6.37618H14.5642C14.8128 6.37618 15.0513 6.47496 15.2271 6.65077C15.4029 6.82659 15.5017 7.06504 15.5017 7.31368Z" fill="#06423D"/>
</svg>
