<svg width="418" height="419" viewBox="0 0 418 419" fill="none" xmlns="http://www.w3.org/2000/svg">
<g filter="url(#filter0_d_6558_13397)">
<circle cx="209" cy="206" r="159" fill="#054F60" fill-opacity="0.85" shape-rendering="crispEdges"/>
</g>
<g filter="url(#filter1_d_6558_13397)">
<path d="M214.435 328.633C280.399 328.633 333.871 275.159 333.871 209.195C333.871 143.232 280.399 89.7578 214.435 89.7578C148.471 89.7578 94.9971 143.232 94.9971 209.195C94.9971 275.159 148.471 328.633 214.435 328.633Z" stroke="#D1E8F7" stroke-width="1.91649" stroke-miterlimit="10"/>
<path d="M117.27 143.273C119.593 143.273 121.477 141.389 121.477 139.066C121.477 136.743 119.593 134.859 117.27 134.859C114.947 134.859 113.063 136.743 113.063 139.066C113.063 141.389 114.947 143.273 117.27 143.273Z" fill="#E3DCCA"/>
<path d="M333.871 217.949C336.195 217.949 338.08 216.066 338.08 213.742C338.08 211.419 336.195 209.535 333.871 209.535C331.55 209.535 329.665 211.419 329.665 213.742C329.665 216.066 331.55 217.949 333.871 217.949Z" fill="#054F60"/>
<path d="M219.334 332.839C221.657 332.839 223.54 330.956 223.54 328.633C223.54 326.309 221.657 324.426 219.334 324.426C217.01 324.426 215.127 326.309 215.127 328.633C215.127 330.956 217.01 332.839 219.334 332.839Z" fill="#054F60"/>
<path d="M217.201 299.082C266.408 299.082 306.298 259.191 306.298 209.984C306.298 160.777 266.408 120.887 217.201 120.887C167.994 120.887 128.104 160.777 128.104 209.984C128.104 259.191 167.994 299.082 217.201 299.082Z" stroke="#D1E8F7" stroke-width="1.42966" stroke-miterlimit="10"/>
<path d="M304.772 231.069C306.505 231.069 307.91 229.664 307.91 227.931C307.91 226.198 306.505 224.793 304.772 224.793C303.039 224.793 301.634 226.198 301.634 227.931C301.634 229.664 303.039 231.069 304.772 231.069Z" fill="#E3DCCA"/>
<path d="M134.566 246.604C136.299 246.604 137.704 245.199 137.704 243.466C137.704 241.733 136.299 240.328 134.566 240.328C132.833 240.328 131.428 241.733 131.428 243.466C131.428 245.199 132.833 246.604 134.566 246.604Z" fill="#054F60"/>
<path d="M177.291 133.378C179.025 133.378 180.43 131.973 180.43 130.24C180.43 128.507 179.025 127.102 177.291 127.102C175.558 127.102 174.153 128.507 174.153 130.24C174.153 131.973 175.558 133.378 177.291 133.378Z" fill="#085A50"/>
<path d="M263.574 308.645H160.68C156.216 308.645 152.946 305.026 153.375 300.562L170.939 117.841C171.368 113.377 175.335 109.758 179.799 109.758H282.693C287.157 109.758 290.427 113.377 289.998 117.841L272.433 300.562C272.004 305.026 268.038 308.645 263.574 308.645Z" fill="#054F60"/>
<path d="M256.322 308.645H153.428C148.965 308.645 145.694 305.026 146.123 300.562L163.687 117.841C164.117 113.377 168.083 109.758 172.547 109.758H275.441C279.905 109.758 283.175 113.377 282.746 117.841L265.182 300.562C264.752 305.026 260.786 308.645 256.322 308.645Z" fill="url(#paint0_linear_6558_13397)"/>
<path d="M252.422 302.575H158.495C154.358 302.575 151.327 299.221 151.724 295.084L168.235 123.326C168.633 119.189 172.309 115.836 176.446 115.836H270.373C274.51 115.836 277.541 119.189 277.144 123.326L260.633 295.084C260.235 299.221 256.559 302.575 252.422 302.575Z" fill="white"/>
<path d="M259.954 193.973L159.194 193.884C158.783 193.895 158.374 193.818 157.994 193.659C157.615 193.499 157.273 193.26 156.994 192.958C156.714 192.657 156.501 192.298 156.371 191.908C156.24 191.517 156.195 191.103 156.237 190.694L161.669 130.376C161.767 129.505 162.181 128.701 162.832 128.115C163.482 127.528 164.325 127.2 165.2 127.191L265.96 127.281C266.372 127.27 266.781 127.347 267.16 127.506C267.54 127.666 267.881 127.904 268.161 128.206C268.441 128.508 268.653 128.866 268.784 129.257C268.914 129.647 268.96 130.061 268.917 130.471L263.485 190.789C263.387 191.659 262.974 192.464 262.323 193.05C261.672 193.637 260.83 193.965 259.954 193.973Z" fill="url(#paint1_linear_6558_13397)"/>
<path d="M256.782 258.96H214.195C213.881 258.967 213.569 258.905 213.281 258.781C212.992 258.656 212.734 258.471 212.523 258.238C212.313 258.005 212.155 257.729 212.06 257.43C211.965 257.13 211.935 256.814 211.973 256.502L217.144 202.709C217.219 202.042 217.533 201.425 218.029 200.972C218.525 200.52 219.168 200.264 219.839 200.25H262.426C262.74 200.244 263.052 200.305 263.34 200.43C263.629 200.555 263.887 200.74 264.098 200.973C264.308 201.206 264.467 201.482 264.561 201.781C264.656 202.081 264.686 202.397 264.648 202.709L259.477 256.502C259.402 257.169 259.088 257.786 258.592 258.238C258.097 258.69 257.453 258.947 256.782 258.96Z" fill="url(#paint2_linear_6558_13397)"/>
<path d="M246.629 229.286C251.432 224.709 251.954 217.461 247.796 213.099C243.638 208.736 236.374 208.91 231.571 213.488C226.769 218.065 226.246 225.313 230.404 229.675C234.562 234.038 241.826 233.864 246.629 229.286Z" stroke="#BDEDEA" stroke-width="5" stroke-miterlimit="10"/>
<path d="M233.701 231.969C229.717 230.248 227.192 226.158 227.65 221.387C228.258 215.064 233.877 209.938 240.2 209.938" stroke="white" stroke-width="5" stroke-miterlimit="10" stroke-linecap="round"/>
<path d="M232.757 241.812H241.518" stroke="white" stroke-width="3" stroke-miterlimit="10" stroke-linecap="round"/>
<path d="M231.802 251.734H240.564" stroke="white" stroke-width="3" stroke-miterlimit="10" stroke-linecap="round"/>
<path opacity="0.4" d="M227.612 246.715H245.719" stroke="white" stroke-width="3" stroke-miterlimit="10" stroke-linecap="round"/>
<path d="M204.701 258.96H162.114C161.8 258.967 161.488 258.905 161.2 258.781C160.912 258.656 160.653 258.471 160.442 258.238C160.232 258.005 160.074 257.729 159.979 257.43C159.884 257.13 159.854 256.814 159.892 256.502L165.063 202.709C165.137 202.042 165.452 201.425 165.948 200.972C166.444 200.52 167.087 200.264 167.758 200.25H210.345C210.659 200.244 210.971 200.305 211.259 200.43C211.548 200.555 211.806 200.74 212.017 200.973C212.227 201.206 212.385 201.482 212.48 201.781C212.575 202.081 212.605 202.397 212.567 202.709L207.396 256.502C207.321 257.169 207.007 257.786 206.511 258.238C206.016 258.69 205.372 258.947 204.701 258.96Z" fill="#E3DCCA"/>
<path d="M194.547 229.286C199.35 224.709 199.872 217.461 195.714 213.099C191.556 208.736 184.292 208.91 179.489 213.488C174.687 218.065 174.164 225.313 178.322 229.675C182.48 234.038 189.744 233.864 194.547 229.286Z" stroke="#BDEDEA" stroke-width="11.6898" stroke-miterlimit="10"/>
<path d="M198.468 221.387C197.861 227.711 192.242 232.837 185.918 232.837C179.595 232.837 174.961 227.711 175.569 221.387C176.177 215.064 181.796 209.938 188.119 209.938" stroke="white" stroke-width="5" stroke-miterlimit="10" stroke-linecap="round"/>
<path d="M180.675 241.812H189.436" stroke="white" stroke-width="3" stroke-miterlimit="10" stroke-linecap="round"/>
<path d="M179.721 251.734H188.483" stroke="white" stroke-width="3" stroke-miterlimit="10" stroke-linecap="round"/>
<path opacity="0.4" d="M175.53 246.715H193.637" stroke="white" stroke-width="3" stroke-miterlimit="10" stroke-linecap="round"/>
<path d="M253.212 297.436H158.286C157.988 297.442 157.693 297.384 157.42 297.266C157.146 297.147 156.902 296.972 156.702 296.751C156.502 296.53 156.353 296.269 156.262 295.985C156.172 295.701 156.144 295.402 156.18 295.106L159.013 265.639C159.084 265.007 159.382 264.422 159.851 263.993C160.321 263.565 160.931 263.322 161.567 263.309H256.493C256.791 263.303 257.086 263.361 257.359 263.48C257.632 263.598 257.877 263.773 258.077 263.994C258.276 264.215 258.426 264.476 258.517 264.76C258.606 265.044 258.634 265.343 258.599 265.639L255.766 295.106C255.695 295.738 255.398 296.323 254.928 296.751C254.458 297.18 253.848 297.423 253.212 297.436Z" fill="url(#paint3_linear_6558_13397)"/>
<path d="M164.896 290.602L166.236 276.672" stroke="white" stroke-width="5" stroke-miterlimit="10" stroke-linecap="round"/>
<path d="M174.722 280.848L173.784 290.606" stroke="white" stroke-width="5" stroke-miterlimit="10" stroke-linecap="round"/>
<path d="M183.29 284.18L182.672 290.605" stroke="white" stroke-width="5" stroke-miterlimit="10" stroke-linecap="round"/>
<path d="M193.247 273.055L191.56 290.605" stroke="white" stroke-width="5" stroke-miterlimit="10" stroke-linecap="round"/>
<path d="M201.065 284.18L200.447 290.605" stroke="white" stroke-width="5" stroke-miterlimit="10" stroke-linecap="round"/>
<path d="M210.946 273.828L209.333 290.604" stroke="white" stroke-width="5" stroke-miterlimit="10" stroke-linecap="round"/>
<path d="M218.89 283.641L218.221 290.606" stroke="white" stroke-width="5" stroke-miterlimit="10" stroke-linecap="round"/>
<path d="M227.465 286.895L227.108 290.605" stroke="white" stroke-width="5" stroke-miterlimit="10" stroke-linecap="round"/>
<path d="M237.335 276.672L235.996 290.602" stroke="white" stroke-width="5" stroke-miterlimit="10" stroke-linecap="round"/>
<path d="M246.733 271.371L244.884 290.606" stroke="white" stroke-width="5" stroke-miterlimit="10" stroke-linecap="round"/>
<path d="M167.356 184.723L172.691 193.08C172.932 193.457 173.014 193.914 172.919 194.351C172.825 194.789 172.561 195.171 172.186 195.415L171.324 195.975C169.88 196.913 168.146 197.295 166.442 197.05C164.738 196.805 163.182 195.949 162.061 194.643L154.981 186.387L167.356 184.723Z" fill="#7B3A1B"/>
<path d="M163.286 187.934C163.286 187.934 165.262 194.716 169.23 196.892C170.26 196.493 171.25 195.997 172.186 195.41L167.736 187.934" fill="#7B3A1B"/>
<path d="M72.0186 218.437L92.9733 208.395C94.9477 207.449 96.6171 205.968 97.792 204.121L118.035 172.277C119.295 170.294 121.123 168.737 123.281 167.807L152.437 155.246L146.195 202.45L146.085 204.194C146.085 204.194 138.373 224.167 119.472 231.423L89.2532 249.906L72.0186 218.437Z" fill="#7B3A1B"/>
<path d="M94.8226 207.289C94.8226 207.289 104.735 232.03 119.472 231.424L110.063 237.179C110.063 237.179 78.1261 231.255 90.0809 209.734L94.8226 207.289Z" fill="#7B3A1B"/>
<path d="M147.924 163.98C147.924 163.98 137.615 170.227 138.162 184.717L150.541 180.091L147.924 163.98Z" fill="#7B3A1B"/>
<path d="M173.82 184.723L179.155 193.08C179.396 193.457 179.478 193.914 179.383 194.351C179.288 194.789 179.025 195.171 178.649 195.415L177.787 195.975C176.344 196.913 174.609 197.295 172.906 197.05C171.202 196.805 169.645 195.949 168.524 194.643L161.445 186.387L173.82 184.723Z" fill="#7B3A1B"/>
<path d="M252.688 188.013L151.928 187.923C151.516 187.934 151.107 187.857 150.728 187.698C150.348 187.538 150.007 187.299 149.727 186.998C149.447 186.696 149.235 186.338 149.104 185.947C148.974 185.556 148.928 185.143 148.97 184.733L154.402 124.415C154.501 123.544 154.914 122.74 155.565 122.154C156.215 121.567 157.058 121.239 157.934 121.23L258.693 121.32C259.105 121.309 259.514 121.386 259.894 121.546C260.273 121.705 260.615 121.944 260.894 122.245C261.174 122.548 261.386 122.906 261.517 123.296C261.648 123.687 261.693 124.101 261.651 124.51L256.219 184.828C256.121 185.699 255.707 186.503 255.057 187.09C254.406 187.676 253.563 188.004 252.688 188.013Z" fill="#054F60"/>
<path d="M158.6 157.016C158.6 157.016 167.644 155.187 170.079 159.431C172.513 163.675 174.611 171.645 181.088 170.618C187.564 169.59 192.522 148.753 198.889 148.943C205.256 149.133 203.011 162.78 209.941 162.971C216.871 163.161 215.639 155.348 220.258 155.565C225.861 155.829 223.772 172.02 231.078 172.211C238.383 172.402 239.575 150.825 250.619 151.203" stroke="white" stroke-width="5" stroke-miterlimit="10" stroke-linecap="round"/>
<path d="M163.744 131.332L181.471 131.348" stroke="white" stroke-width="5" stroke-miterlimit="10" stroke-linecap="round"/>
<path opacity="0.4" d="M163.012 139.461L199.646 139.494" stroke="white" stroke-width="5" stroke-miterlimit="10" stroke-linecap="round"/>
<path d="M128.711 187.716L141.636 182.022L154.855 172.999C158.331 170.627 165.591 169.558 168.204 172.857C170.863 176.212 167.876 182.85 164.652 185.665L152.436 196.333L146.084 204.194L128.711 187.716Z" fill="#7B3A1B"/>
<path d="M154.981 176.427C154.981 176.427 156.726 183.156 161.251 184.32L166.049 180.266C166.536 179.904 166.944 179.446 167.248 178.921C167.552 178.396 167.745 177.815 167.817 177.212C167.889 176.61 167.838 175.999 167.666 175.418C167.494 174.836 167.206 174.295 166.818 173.828C166.141 173.013 165.197 172.465 164.153 172.282C163.11 172.099 162.035 172.293 161.121 172.829L154.981 176.427Z" stroke="#7B3A1B" stroke-width="3" stroke-linecap="round"/>
<path d="M93.7694 207.562C93.7694 207.562 91.2645 225.477 113.063 235.735C113.063 235.735 97.4039 250.099 91.3667 252.514C85.3299 254.929 62.6475 230.247 70.715 216.238C72.9775 212.31 93.7694 207.562 93.7694 207.562Z" fill="#054F60"/>
<path d="M176.364 188.702C176.364 188.702 167.867 188.875 164.91 190.423L162.775 187.934L175.873 187.934L176.364 188.702Z" fill="#7B3A1B"/>
<path d="M332.799 188.015H272.39C267.839 188.015 264.476 184.326 264.879 179.775L272.985 88.2394C273.388 83.6891 277.403 80 281.954 80H342.364C346.916 80 350.276 83.6891 349.873 88.2394L341.767 179.775C341.365 184.326 337.348 188.015 332.799 188.015Z" fill="#E3DCCA"/>
<path d="M324.15 131.687C333.717 122.536 334.679 108.02 326.304 99.2643C317.928 90.5091 303.383 90.8302 293.818 99.9817C284.252 109.133 283.288 123.649 291.664 132.405C300.04 141.16 314.585 140.839 324.15 131.687Z" fill="white"/>
<path d="M310.264 116.547L325.428 130.378C325.428 130.378 328.878 126.669 329.907 124.019L310.264 116.547Z" fill="url(#paint4_linear_6558_13397)"/>
<path d="M311.274 89.9805L309.119 114.316C309.071 114.759 309.154 115.207 309.357 115.604C309.561 116 309.876 116.329 310.264 116.548L330.84 128.003C330.84 128.003 343.058 93.9167 311.274 89.9805Z" fill="#054F60"/>
<path d="M279.069 155.617H304.096" stroke="white" stroke-width="5" stroke-miterlimit="10" stroke-linecap="round"/>
<path d="M277.236 176.305H302.263" stroke="white" stroke-width="5" stroke-miterlimit="10" stroke-linecap="round"/>
<path opacity="0.4" d="M278.164 165.844H329.882" stroke="white" stroke-width="5" stroke-miterlimit="10" stroke-linecap="round"/>
<path d="M258.505 255.449C258.505 255.449 266.572 253.298 270.866 257.921C270.866 257.921 278.583 256.52 281.721 260.813C281.721 260.813 288.563 261.209 290.544 264C292.192 264.227 293.75 264.887 295.06 265.912C296.369 266.937 297.384 268.291 298.001 269.836C299.872 274.245 298.285 299.738 296.425 308.873C295.96 311.157 296.12 313.525 296.887 315.727L301.617 329.32L268.889 343.001L261.119 322.736C261.119 322.736 251.662 307.537 250.31 304.834C248.959 302.132 251.249 279.709 246.637 265.702L258.505 255.449Z" fill="#7B3A1B"/>
<path d="M265.341 333.745L264.396 331.283C264.396 331.283 281.378 330.197 296.886 315.727L298.37 319.989C298.37 319.989 296.454 328.794 287.733 332.944C279.012 337.094 265.341 333.745 265.341 333.745Z" fill="#7B3A1B"/>
<path d="M265.341 333.748C265.341 333.748 285.897 335.62 298.37 319.992C298.37 319.992 302.976 322.407 310.047 340.083C312.219 345.513 275.951 364.843 270.087 356.808C270.087 356.808 265.025 346.099 265.341 333.748Z" fill="#054F60"/>
<path d="M248.649 274.156C248.649 274.156 247.94 277.918 244.588 277.918C242.401 277.918 232.92 275.054 226.592 273.063C224.87 272.521 223.024 272.521 221.302 273.063C219.58 273.604 218.066 274.662 216.965 276.092L216.581 276.592C216.39 276.839 216.251 277.123 216.173 277.426C216.095 277.728 216.079 278.044 216.126 278.353C216.174 278.662 216.283 278.958 216.448 279.224C216.613 279.489 216.831 279.719 217.087 279.897C222.444 283.637 236.911 293.788 238.761 295.638C241.038 297.915 253.718 310.68 253.718 310.68L248.649 274.156Z" fill="#7B3A1B"/>
<path d="M247.879 270.391C247.879 270.391 254.731 279.666 253.717 281.696C252.703 283.726 242.077 277.519 242.077 277.519C242.077 277.519 250.651 279.724 247.879 270.391Z" fill="#7B3A1B"/>
<path d="M246.637 265.701L235.107 230.686C234.711 229.484 234.561 228.216 234.665 226.955C234.769 225.695 235.125 224.469 235.711 223.349C236.298 222.228 237.104 221.237 238.081 220.434C239.058 219.632 240.186 219.033 241.399 218.674C242.391 218.381 243.457 218.46 244.395 218.898C245.333 219.335 246.078 220.1 246.491 221.05L262.667 258.233L246.637 265.701Z" fill="#7B3A1B"/>
<path d="M241.637 250.516C241.963 251.052 242.398 251.516 242.912 251.877C243.426 252.238 244.009 252.489 244.626 252.614" stroke="#7B3A1B" stroke-width="3" stroke-linecap="round"/>
<path d="M245.785 232.59C247.188 231.968 248.736 231.099 249.401 230.085L245.108 219.891C245.016 219.671 244.878 219.474 244.704 219.311C244.53 219.149 244.324 219.025 244.098 218.948C243.873 218.872 243.634 218.844 243.396 218.867C243.159 218.89 242.93 218.963 242.723 219.081C241.196 219.963 239.179 221.554 239.101 223.839L242.004 231.065C242.147 231.418 242.359 231.738 242.628 232.008C242.897 232.277 243.218 232.489 243.571 232.631C243.924 232.773 244.302 232.843 244.682 232.836C245.063 232.829 245.438 232.745 245.785 232.59Z" stroke="#7B3A1B" stroke-width="3" stroke-linecap="round"/>
<path d="M261.365 255.242L265.34 263.999" stroke="#7B3A1B" stroke-width="3" stroke-linecap="round"/>
<path d="M271.024 258.098C273.044 260.994 274.127 264.44 274.126 267.971" stroke="#7B3A1B" stroke-width="3" stroke-linecap="round"/>
<path d="M281.911 260.977C281.911 260.977 283.912 265.566 284.077 269.195" stroke="#7B3A1B" stroke-width="3" stroke-linecap="round"/>
<path d="M290.824 264.273C291.612 266.21 291.918 268.309 291.715 270.39" stroke="#7B3A1B" stroke-width="3" stroke-linecap="round"/>
<path d="M225.554 284.18C225.554 284.18 227.922 281.173 227.109 279.665C226.297 278.157 222.684 276.024 220.596 276.256C219.6 276.406 218.639 276.733 217.758 277.223C217.598 277.306 217.463 277.431 217.366 277.583C217.268 277.735 217.212 277.91 217.203 278.091C217.195 278.271 217.233 278.451 217.315 278.612C217.397 278.773 217.52 278.91 217.671 279.009L225.554 284.18Z" stroke="#7B3A1B" stroke-width="3" stroke-linecap="round"/>
<path d="M184.836 320.842H112.7C112.403 320.848 112.107 320.79 111.834 320.672C111.56 320.554 111.316 320.378 111.116 320.157C110.916 319.936 110.766 319.675 110.677 319.391C110.586 319.108 110.558 318.808 110.594 318.512L113.427 289.045C113.498 288.413 113.796 287.828 114.265 287.4C114.735 286.971 115.345 286.728 115.981 286.715H188.116C188.414 286.709 188.71 286.768 188.983 286.886C189.256 287.004 189.501 287.179 189.701 287.4C189.9 287.621 190.05 287.882 190.14 288.166C190.23 288.45 190.258 288.75 190.222 289.045L187.39 318.512C187.319 319.144 187.021 319.729 186.551 320.158C186.081 320.586 185.472 320.83 184.836 320.842Z" fill="#E3DCCA"/>
<path d="M119.472 294.402H163.99" stroke="#BDEDEA" stroke-width="5" stroke-miterlimit="10" stroke-linecap="round"/>
<path d="M119.472 294.402H150.407" stroke="white" stroke-width="5" stroke-miterlimit="10" stroke-linecap="round"/>
<path d="M118.807 303.785H163.325" stroke="#BDEDEA" stroke-width="5" stroke-miterlimit="10" stroke-linecap="round"/>
<path d="M118.807 303.785H137.302" stroke="white" stroke-width="5" stroke-miterlimit="10" stroke-linecap="round"/>
<path d="M117.351 313.16H161.869" stroke="#BDEDEA" stroke-width="5" stroke-miterlimit="10" stroke-linecap="round"/>
<path d="M117.351 313.16H128.661" stroke="white" stroke-width="5" stroke-miterlimit="10" stroke-linecap="round"/>
<path d="M179.75 297.062C181.219 297.062 182.41 295.871 182.41 294.402C182.41 292.933 181.219 291.742 179.75 291.742C178.281 291.742 177.09 292.933 177.09 294.402C177.09 295.871 178.281 297.062 179.75 297.062Z" fill="white"/>
<path d="M178.886 306.031C180.355 306.031 181.546 304.84 181.546 303.371C181.546 301.902 180.355 300.711 178.886 300.711C177.416 300.711 176.226 301.902 176.226 303.371C176.226 304.84 177.416 306.031 178.886 306.031Z" fill="white"/>
<path d="M177.923 315.82C179.392 315.82 180.583 314.629 180.583 313.16C180.583 311.691 179.392 310.5 177.923 310.5C176.454 310.5 175.263 311.691 175.263 313.16C175.263 314.629 176.454 315.82 177.923 315.82Z" fill="white"/>
</g>
<defs>
<filter id="filter0_d_6558_13397" x="0" y="0.775701" width="418" height="418" filterUnits="userSpaceOnUse" color-interpolation-filters="sRGB">
<feFlood flood-opacity="0" result="BackgroundImageFix"/>
<feColorMatrix in="SourceAlpha" type="matrix" values="0 0 0 0 0 0 0 0 0 0 0 0 0 0 0 0 0 0 127 0" result="hardAlpha"/>
<feMorphology radius="5" operator="dilate" in="SourceAlpha" result="effect1_dropShadow_6558_13397"/>
<feOffset dy="3.7757"/>
<feGaussianBlur stdDeviation="22.5"/>
<feComposite in2="hardAlpha" operator="out"/>
<feColorMatrix type="matrix" values="0 0 0 0 0.0235294 0 0 0 0 0.258824 0 0 0 0 0.239216 0 0 0 0.1 0"/>
<feBlend mode="normal" in2="BackgroundImageFix" result="effect1_dropShadow_6558_13397"/>
<feBlend mode="normal" in="SourceGraphic" in2="effect1_dropShadow_6558_13397" result="shape"/>
</filter>
<filter id="filter1_d_6558_13397" x="19" y="33.7757" width="380.906" height="378.734" filterUnits="userSpaceOnUse" color-interpolation-filters="sRGB">
<feFlood flood-opacity="0" result="BackgroundImageFix"/>
<feColorMatrix in="SourceAlpha" type="matrix" values="0 0 0 0 0 0 0 0 0 0 0 0 0 0 0 0 0 0 127 0" result="hardAlpha"/>
<feMorphology radius="5" operator="dilate" in="SourceAlpha" result="effect1_dropShadow_6558_13397"/>
<feOffset dy="3.7757"/>
<feGaussianBlur stdDeviation="22.5"/>
<feComposite in2="hardAlpha" operator="out"/>
<feColorMatrix type="matrix" values="0 0 0 0 0.0235294 0 0 0 0 0.258824 0 0 0 0 0.239216 0 0 0 0.1 0"/>
<feBlend mode="normal" in2="BackgroundImageFix" result="effect1_dropShadow_6558_13397"/>
<feBlend mode="normal" in="SourceGraphic" in2="effect1_dropShadow_6558_13397" result="shape"/>
</filter>
<linearGradient id="paint0_linear_6558_13397" x1="198.609" y1="46.4764" x2="293.13" y2="520.147" gradientUnits="userSpaceOnUse">
<stop stop-color="white"/>
<stop offset="1" stop-color="#94B9FF"/>
</linearGradient>
<linearGradient id="paint1_linear_6558_13397" x1="209.771" y1="127.033" x2="218.936" y2="269.7" gradientUnits="userSpaceOnUse">
<stop stop-color="white"/>
<stop offset="1" stop-color="#94B9FF"/>
</linearGradient>
<linearGradient id="paint2_linear_6558_13397" x1="236.998" y1="200.11" x2="251.99" y2="324.243" gradientUnits="userSpaceOnUse">
<stop stop-color="white"/>
<stop offset="1" stop-color="#94B9FF"/>
</linearGradient>
<linearGradient id="paint3_linear_6558_13397" x1="204.839" y1="263.227" x2="207.479" y2="336.341" gradientUnits="userSpaceOnUse">
<stop stop-color="white"/>
<stop offset="1" stop-color="#94B9FF"/>
</linearGradient>
<linearGradient id="paint4_linear_6558_13397" x1="319.596" y1="116.514" x2="321.848" y2="146.011" gradientUnits="userSpaceOnUse">
<stop stop-color="white"/>
<stop offset="1" stop-color="#94B9FF"/>
</linearGradient>
</defs>
</svg>
